<svg xmlns="http://www.w3.org/2000/svg" width="189.5" height="47.935" viewBox="0 0 189.5 47.935">
  <g id="Group_69" data-name="Group 69" transform="translate(-20 -6)">
    <g id="Group_58" transform="translate(-106.714 -196.775)">
      <g id="Ellipse_2" transform="translate(149.82 214.006) rotate(39)">
        <ellipse id="Ellipse_20" data-name="Ellipse 20" cx="12.739" cy="13.156" rx="12.739" ry="13.156" transform="translate(26.329 0.002) rotate(90)" fill="none"/>
        <path id="Path_13" data-name="Path 13" d="M21.6,22.558a13.315,13.315,0,0,1-8.439,2.952A12.967,12.967,0,0,1,0,12.771,12.532,12.532,0,0,1,3.851,3.754,13.237,13.237,0,0,1,13.156,0h0a13.234,13.234,0,0,1,9.306,3.722,12.406,12.406,0,0,1,3.851,9.017,12.532,12.532,0,0,1-3.851,9.017C22.173,22.045,21.885,22.3,21.6,22.558ZM4.942,3.209a9.34,9.34,0,0,0-.866.77,12.171,12.171,0,0,0-3.754,8.76A12.645,12.645,0,0,0,13.156,25.158a13,13,0,0,0,9.081-3.626,12.063,12.063,0,0,0,3.754-8.792,12.243,12.243,0,0,0-3.754-8.792A12.947,12.947,0,0,0,13.156.321h0A13.008,13.008,0,0,0,4.942,3.209Z" transform="translate(0 0)" fill="#ebebeb"/>
      </g>
      <g id="Ellipse_5" transform="translate(149.687 207.776) rotate(39)">
        <circle id="Ellipse_21" data-name="Ellipse 21" cx="12.836" cy="12.836" r="12.836" fill="none"/>
        <path id="Path_14" data-name="Path 14" d="M20.89,22.815a12.605,12.605,0,0,1-8.054,2.856A12.836,12.836,0,0,1,12.836,0h0a12.843,12.843,0,0,1,9.081,21.917C21.6,22.238,21.243,22.526,20.89,22.815ZM5.391,3.594A11.892,11.892,0,1,0,12.836.963h0A11.815,11.815,0,0,0,5.391,3.594Z" transform="translate(0 0)" fill="#ebebeb"/>
      </g>
      <g id="Ellipse_6" transform="translate(145.815 202.775) rotate(39)">
        <circle id="Ellipse_22" data-name="Ellipse 22" cx="12.996" cy="12.996" r="12.996" fill="none"/>
        <path id="Path_15" data-name="Path 15" d="M21.147,23.1A13,13,0,0,1,13,25.992a12.811,12.811,0,0,1-9.177-3.819A12.979,12.979,0,0,1,13,0h0a12.811,12.811,0,0,1,9.177,3.819A12.953,12.953,0,0,1,21.147,23.1ZM5.84,4.139A11.431,11.431,0,0,0,1.6,13a11.392,11.392,0,0,0,22.783,0A11.394,11.394,0,0,0,13,1.6h0A11.435,11.435,0,0,0,5.84,4.139Z" transform="translate(0 0)" fill="#ebebeb"/>
      </g>
      <g id="Ellipse_7" transform="translate(143.284 214.153) rotate(39)">
        <circle id="Ellipse_23" data-name="Ellipse 23" cx="12.996" cy="12.996" r="12.996" fill="none"/>
        <path id="Path_16" data-name="Path 16" d="M21.147,23.1A13,13,0,0,1,13,25.992a12.811,12.811,0,0,1-9.177-3.819A13,13,0,0,1,0,13,12.811,12.811,0,0,1,3.819,3.819,12.811,12.811,0,0,1,13,0a12.986,12.986,0,0,1,8.151,23.1ZM5.23,3.369q-.529.433-.963.866A12.306,12.306,0,0,0,.642,13,12.38,12.38,0,0,0,13,25.35,12.354,12.354,0,1,0,5.23,3.369Z" transform="translate(0 0)" fill="#ebebeb"/>
      </g>
      <g id="Ellipse_8" transform="translate(142.87 208.036) rotate(39)">
        <circle id="Ellipse_24" data-name="Ellipse 24" cx="12.836" cy="12.836" r="12.836" fill="none"/>
        <path id="Path_17" data-name="Path 17" d="M20.89,22.815a12.642,12.642,0,0,1-8.054,2.856A12.836,12.836,0,1,1,21.917,3.754a12.66,12.66,0,0,1,3.754,9.081A12.794,12.794,0,0,1,20.89,22.815ZM5.583,3.851c-.321.257-.61.546-.931.834a11.375,11.375,0,0,0-3.369,8.151A11.572,11.572,0,1,0,12.836,1.284h0A11.438,11.438,0,0,0,5.583,3.851Z" transform="translate(0 0)" fill="#ebebeb"/>
      </g>
    </g>
    <g id="Group_63" data-name="Group 63" transform="translate(-54.5 -378)">
      <text id="FLOW" transform="translate(125 414)" fill="#ebebeb" font-size="20" font-family="ProximaNova-Bold, Proxima Nova" font-weight="700"><tspan x="0" y="0">FLOW</tspan></text>
      <text id="CEPTION" transform="translate(182 414)" fill="#ebebeb" font-size="20" font-family="ProximaNova-Light, Proxima Nova" font-weight="300"><tspan x="0" y="0">CEPTION</tspan></text>
    </g>
  </g>
</svg>
